# Blender v2.80 (sub 75) OBJ File: 'desert mountain.blend'
# www.blender.org
mtllib desert mountain.mtl
o Hex
v -0.500000 0.200000 -0.288675
v -0.000000 0.000000 -0.577350
v -0.500000 0.000000 -0.288675
v -0.000000 0.200000 -0.577350
v 0.500000 0.200000 0.288675
v 0.500000 0.000000 -0.288675
v 0.500000 0.200000 -0.288675
v 0.500000 -0.000000 0.288675
v 0.000000 0.200000 0.577350
v -0.500000 0.200000 0.288675
v -0.500000 -0.000000 0.288675
v 0.000000 -0.000000 0.577350
v -0.500000 0.100000 -0.288675
v -0.000000 0.100000 -0.577350
v 0.500000 0.100000 -0.288675
v 0.500000 0.100000 0.288675
v 0.000000 0.100000 0.577350
v -0.500000 0.100000 0.288675
v -0.219215 0.665969 -0.126564
v -0.000000 0.665523 -0.202539
v 0.219215 0.665969 0.126564
v 0.219215 0.665969 -0.126564
v 0.000000 0.665523 0.202540
v -0.219215 0.665969 0.126564
v -0.386757 0.631797 -0.176724
v -0.000000 0.632243 -0.332943
v 0.386757 0.631797 0.176724
v 0.386757 0.631797 -0.176724
v 0.000000 0.632243 0.332944
v -0.386757 0.631797 0.176724
vt 0.606544 0.000086
vt 0.635406 0.000086
vt 0.635406 0.166724
vt 0.606544 0.166724
vt 0.635406 0.333362
vt 0.606544 0.333362
vt 0.635406 0.166724
vt 0.635406 0.333362
vt 0.635406 0.666638
vt 0.635406 0.833276
vt 0.606544 0.833276
vt 0.606544 0.666638
vt 0.635406 0.999914
vt 0.606544 0.999914
vt 0.606544 0.500000
vt 0.635406 0.500000
vt 0.144399 0.065353
vt 0.232189 0.116039
vt 0.232189 0.217410
vt 0.144399 0.268095
vt 0.056609 0.217409
vt 0.056609 0.116039
vt 0.635406 0.500000
vt 0.635406 0.666638
vt 0.635406 0.833276
vt 0.635406 0.000086
vt 0.635406 0.999914
vt 0.288712 0.083405
vt 0.288712 0.250043
vt 0.000086 0.083405
vt 0.144399 0.000086
vt 0.000086 0.250043
vt 0.144399 0.333362
vt 0.577681 0.333362
vt 0.577681 0.166724
vt 0.577681 0.666638
vt 0.577681 0.500000
vt 0.577681 0.833276
vt 0.577681 0.000086
vt 0.577509 0.083405
vt 0.577509 0.250043
vt 0.433196 0.333362
vt 0.288884 0.250043
vt 0.288884 0.083405
vt 0.433196 0.000086
vt 0.577681 0.999914
vn -1.0000 0.0000 0.0000
vn -0.5000 0.0000 -0.8660
vn -0.4125 0.3930 -0.8218
vn 0.5000 -0.0000 0.8660
vn -0.5000 -0.0000 0.8660
vn 1.0000 0.0000 0.0000
vn 0.5000 0.0000 -0.8660
vn 0.0000 1.0000 0.0000
vn 0.4125 0.3930 -0.8218
vn 0.4125 0.3930 0.8218
vn -0.9673 0.2537 0.0000
vn 0.9673 0.2537 0.0000
vn -0.4125 0.3930 0.8218
vn -0.1013 0.9591 -0.2643
vn 0.1998 0.9798 0.0000
vn 0.1013 0.9591 0.2643
vn 0.1013 0.9591 -0.2643
vn -0.1013 0.9591 0.2643
vn -0.1998 0.9798 0.0000
vn 0.0000 -1.0000 -0.0000
usemtl Desert_Rock
s 1
f 18/1/1 10/2/1 1/3/1 13/4/1
f 1/3/2 4/5/2 14/6/2 13/4/2
f 4/5/3 1/3/3 25/7/3 26/8/3
f 5/9/4 9/10/4 17/11/4 16/12/4
f 9/10/5 10/13/5 18/14/5 17/11/5
f 5/9/6 16/12/6 15/15/6 7/16/6
f 4/5/7 7/16/7 15/15/7 14/6/7
f 22/17/8 20/18/8 19/19/8 24/20/8 23/21/8 21/22/8
f 7/16/9 4/5/9 26/8/9 28/23/9
f 9/10/10 5/9/10 27/24/10 29/25/10
f 1/3/11 10/2/11 30/26/11 25/7/11
f 5/9/12 7/16/12 28/23/12 27/24/12
f 10/13/13 9/10/13 29/25/13 30/27/13
f 19/19/14 20/18/14 26/28/14 25/29/14
f 22/17/15 21/22/15 27/30/15 28/31/15
f 21/22/16 23/21/16 29/32/16 27/30/16
f 20/18/17 22/17/17 28/31/17 26/28/17
f 23/21/18 24/20/18 30/33/18 29/32/18
f 24/20/19 19/19/19 25/29/19 30/33/19
usemtl Dirt
f 13/4/2 14/6/2 2/34/2 3/35/2
f 16/12/6 8/36/6 6/37/6 15/15/6
f 16/12/4 17/11/4 12/38/4 8/36/4
f 11/39/1 18/1/1 13/4/1 3/35/1
f 2/40/20 6/41/20 8/42/20 12/43/20 11/44/20 3/45/20
f 17/11/5 18/14/5 11/46/5 12/38/5
f 14/6/7 15/15/7 6/37/7 2/34/7
