# Blender v2.80 (sub 75) OBJ File: 'mountain.blend'
# www.blender.org
mtllib mountain.mtl
o Hex
v -0.500000 0.200000 -0.288675
v -0.000000 0.000000 -0.577350
v -0.500000 0.000000 -0.288675
v -0.000000 0.200000 -0.577350
v 0.500000 0.200000 0.288675
v 0.500000 0.000000 -0.288675
v 0.500000 0.200000 -0.288675
v 0.500000 -0.000000 0.288675
v 0.000000 0.200000 0.577350
v -0.500000 0.200000 0.288675
v -0.500000 -0.000000 0.288675
v 0.000000 -0.000000 0.577350
v -0.500000 0.100000 -0.288675
v -0.000000 0.100000 -0.577350
v 0.500000 0.100000 -0.288675
v 0.500000 0.100000 0.288675
v 0.000000 0.100000 0.577350
v -0.500000 0.100000 0.288675
v 0.000000 0.887435 0.065528
v -0.000000 0.719112 -0.267652
v -0.000000 0.577247 -0.159075
v 0.210449 0.552248 0.185834
v -0.222786 0.578739 -0.101973
v -0.250000 0.624314 0.144338
v 0.000000 0.578739 0.319917
v 0.250000 0.548276 -0.040915
v -0.000000 0.494577 -0.433013
v 0.178594 0.494577 -0.288675
v -0.195733 0.494577 -0.288675
v -0.000000 0.641865 -0.350332
v -0.111393 0.768108 -0.018223
v 0.158671 0.725962 0.012306
v -0.000000 0.778788 -0.075155
v 0.105225 0.737108 0.125681
v -0.125000 0.789019 0.104933
v 0.000000 0.768108 0.229670
v 0.089297 0.641865 -0.278164
v -0.097866 0.641865 -0.278164
v -0.000000 0.683201 -0.213363
vt 0.318053 0.000216
vt 0.346908 0.000216
vt 0.346908 0.166811
vt 0.318053 0.166811
vt 0.346908 0.333405
vt 0.318053 0.333405
vt 0.111864 0.387710
vt 0.247295 0.333837
vt 0.247295 0.500432
vt 0.104817 0.460072
vt 0.346908 0.666595
vt 0.346908 0.833189
vt 0.318053 0.833189
vt 0.318053 0.666595
vt 0.346908 0.999784
vt 0.318053 0.999784
vt 0.318053 0.500000
vt 0.346908 0.500000
vt 0.443579 0.208891
vt 0.585686 0.167242
vt 0.585686 0.333837
vt 0.458872 0.296696
vt 0.593639 0.000216
vt 0.593639 0.166811
vt 0.469933 0.095319
vt 0.461950 0.029375
vt 0.503209 0.334269
vt 0.492460 0.468718
vt 0.426601 0.498809
vt 0.347340 0.393078
vt 0.388182 0.233793
vt 0.399734 0.283787
vt 0.048405 0.411708
vt 0.045325 0.447835
vt 0.668366 0.066038
vt 0.668366 0.125695
vt 0.594071 0.095422
vt 0.621313 0.038622
vt 0.733365 0.000216
vt 0.729331 0.145913
vt 0.668797 0.173116
vt 0.169919 0.500863
vt 0.169919 0.667458
vt 0.074252 0.591424
vt 0.077501 0.521325
vt 0.673304 0.334269
vt 0.673304 0.500864
vt 0.580821 0.480703
vt 0.576478 0.414586
vt 0.658818 0.268254
vt 0.206514 0.586985
vt 0.191607 0.708275
vt 0.170351 0.524940
vt 0.217055 0.536967
vt 0.198973 0.505945
vt 0.241862 0.500863
vt 0.253487 0.626127
vt 0.217487 0.683809
vt 0.411860 0.081661
vt 0.400682 0.047114
vt 0.497521 0.532302
vt 0.457930 0.550601
vt 0.732615 0.213679
vt 0.699411 0.228172
vt 0.263457 0.674912
vt 0.245457 0.703753
vt 0.028635 0.568359
vt 0.030259 0.533310
vt 0.533563 0.468778
vt 0.531392 0.435720
vt 0.289198 0.333405
vt 0.289198 0.166811
vt 0.289198 0.666595
vt 0.289198 0.500000
vt 0.289198 0.833189
vt 0.289198 0.000216
vt 0.000216 0.250108
vt 0.000216 0.083513
vt 0.144491 0.000216
vt 0.288766 0.083513
vt 0.288766 0.250108
vt 0.144491 0.333405
vt 0.289198 0.999784
vt 0.733365 0.266614
vt 0.503209 0.587731
vt 0.347340 0.063218
vt 0.503641 0.455715
vt 0.263457 0.709117
vt 0.000216 0.546092
vt 0.655308 0.000216
vt 0.000216 0.433629
vt 0.347340 0.257639
vt 0.217055 0.500863
vn -1.0000 0.0000 0.0000
vn -0.5000 0.0000 -0.8660
vn -0.8250 0.5553 -0.1050
vn -0.8331 0.5500 -0.0580
vn -0.8224 0.5565 -0.1184
vn 0.5000 -0.0000 0.8660
vn -0.5000 -0.0000 0.8660
vn 1.0000 0.0000 0.0000
vn 0.5000 0.0000 -0.8660
vn -0.4656 0.4823 0.7420
vn -0.4310 0.5075 0.7461
vn -0.4602 0.4863 0.7427
vn 0.7953 0.6051 0.0361
vn 0.8224 0.5600 0.0999
vn 0.8291 0.5466 0.1178
vn 0.4477 0.5317 0.7190
vn 0.5025 0.4989 0.7061
vn 0.5134 0.4920 0.7031
vn -0.4758 0.5787 0.6623
vn -0.4859 0.5449 0.6834
vn -0.7548 0.6268 -0.1936
vn -0.7390 0.6451 -0.1944
vn 0.4938 0.4866 -0.7206
vn 0.4168 0.5932 -0.6888
vn 0.4443 0.5130 -0.7345
vn 0.5033 0.5428 -0.6724
vn -0.2041 0.5489 -0.8106
vn -0.2403 0.5122 -0.8245
vn -0.2670 0.4838 -0.8335
vn -0.4762 0.4334 -0.7651
vn -0.4988 0.4262 -0.7547
vn -0.5031 0.4248 -0.7526
vn 0.4811 0.4472 -0.7540
vn 0.5204 0.4288 -0.7385
vn 0.5155 0.4311 -0.7405
vn 0.3698 0.7000 -0.6109
vn -0.6081 0.5644 0.5584
vn -0.5985 0.6182 0.5096
vn -0.6176 0.4150 0.6680
vn -0.6177 0.4217 0.6638
vn -0.6134 0.5183 0.5959
vn 0.6136 0.6695 0.4185
vn 0.6321 0.6034 0.4862
vn 0.6523 0.4191 0.6316
vn 0.8203 0.5207 0.2367
vn 0.7966 0.5504 0.2499
vn 0.6142 0.5179 0.5955
vn 0.6143 0.5186 0.5947
vn -0.3300 0.5689 -0.7533
vn -0.3333 0.5839 -0.7403
vn 0.6524 0.4099 0.6375
vn 0.6483 0.4993 0.5749
vn -0.5160 0.4941 -0.6997
vn -0.5115 0.5071 -0.6937
vn 0.5470 0.4927 -0.6768
vn 0.5492 0.4866 -0.6795
vn 0.0000 -1.0000 -0.0000
vn -0.3620 0.7378 -0.5698
vn 0.6338 0.6256 0.4548
vn 0.7291 0.6234 0.2824
vn 0.4831 0.6398 -0.5977
vn 0.6182 0.6556 0.4337
vn -0.4497 0.6527 -0.6098
vn 0.5148 0.6785 -0.5240
vn -0.6440 0.7393 -0.1967
vn -0.4115 0.7372 0.5359
vn -0.5830 0.6776 0.4482
usemtl Rock
s 1
f 18/1/1 10/2/1 1/3/1 13/4/1
f 1/3/2 4/5/2 14/6/2 13/4/2
f 23/7/3 1/8/4 10/9/4 24/10/5
f 5/11/6 9/12/6 17/13/6 16/14/6
f 9/12/7 10/15/7 18/16/7 17/13/7
f 5/11/8 16/14/8 15/17/8 7/18/8
f 4/5/9 7/18/9 15/17/9 14/6/9
f 24/19/10 10/20/11 9/21/11 25/22/12
f 5/23/13 7/24/13 26/25/14 22/26/15
f 5/27/16 22/28/17 25/29/18 9/30/16
f 35/31/19 24/19/10 25/22/12 36/32/20
f 31/33/21 23/7/3 24/10/5 35/34/22
f 32/35/23 26/36/24 21/37/25 33/38/26
f 1/39/27 23/40/28 21/41/29
f 4/42/30 1/43/30 29/44/31 27/45/32
f 7/46/33 4/47/33 27/48/34 28/49/35
f 26/36/24 7/50/36 21/37/25
f 29/51/37 1/52/38 21/53/39
f 38/54/40 29/51/37 21/53/39 39/55/41
f 7/56/42 28/57/43 21/58/44
f 22/26/15 26/25/14 32/59/45 34/60/46
f 22/28/17 34/61/47 36/62/48 25/29/18
f 23/40/28 31/63/49 33/64/50 21/41/29
f 28/57/43 37/65/51 39/66/52 21/58/44
f 27/45/32 29/44/31 38/67/53 30/68/54
f 28/49/35 27/48/34 30/69/55 37/70/56
usemtl Dirt
f 13/4/2 14/6/2 2/71/2 3/72/2
f 16/14/8 8/73/8 6/74/8 15/17/8
f 16/14/6 17/13/6 12/75/6 8/73/6
f 11/76/1 18/1/1 13/4/1 3/72/1
f 2/77/57 6/78/57 8/79/57 12/80/57 11/81/57 3/82/57
f 17/13/7 18/16/7 11/83/7 12/75/7
f 14/6/9 15/17/9 6/74/9 2/71/9
usemtl Snow
f 31/63/49 19/84/58 33/64/50
f 34/61/47 19/85/59 36/62/48
f 34/60/46 32/59/45 19/86/60
f 37/70/56 30/69/55 20/87/61
f 37/65/51 20/88/62 39/66/52
f 30/68/54 38/67/53 20/89/63
f 19/90/64 32/35/23 33/38/26
f 19/91/65 31/33/21 35/34/22
f 19/92/66 35/31/19 36/32/20
f 20/93/67 38/54/40 39/55/41
