# Blender v2.80 (sub 75) OBJ File: 'Ocean.blend'
# www.blender.org
mtllib ocean.mtl
o Hex
v -0.500000 0.100000 -0.288675
v -0.000000 -0.200000 -0.577350
v -0.500000 -0.200000 -0.288675
v -0.000000 0.100000 -0.577350
v 0.500000 0.100000 0.288675
v 0.500000 -0.200000 -0.288675
v 0.500000 0.100000 -0.288675
v 0.500000 -0.200000 0.288675
v 0.000000 0.100000 0.577350
v -0.500000 0.100000 0.288675
v -0.500000 -0.200000 0.288675
v 0.000000 -0.200000 0.577350
v -0.500000 -0.100000 -0.288675
v -0.000000 -0.100000 -0.577350
v 0.500000 -0.100000 -0.288675
v 0.500000 -0.100000 0.288675
v 0.000000 -0.100000 0.577350
v -0.500000 -0.100000 0.288675
vt 0.606544 0.000086
vt 0.635406 0.000086
vt 0.635406 0.166724
vt 0.606544 0.166724
vt 0.635406 0.333362
vt 0.606544 0.333362
vt 0.144399 0.000086
vt 0.288712 0.083405
vt 0.288712 0.250043
vt 0.144399 0.333362
vt 0.000086 0.250043
vt 0.000086 0.083405
vt 0.635406 0.666638
vt 0.635406 0.833276
vt 0.606544 0.833276
vt 0.606544 0.666638
vt 0.635406 0.999914
vt 0.606544 0.999914
vt 0.606544 0.500000
vt 0.635406 0.500000
vt 0.577681 0.333362
vt 0.577681 0.166724
vt 0.577681 0.666638
vt 0.577681 0.500000
vt 0.577681 0.833276
vt 0.577681 0.000086
vt 0.577509 0.083405
vt 0.577509 0.250043
vt 0.433196 0.333362
vt 0.288884 0.250043
vt 0.288884 0.083405
vt 0.433196 0.000086
vt 0.577681 0.999914
vn -1.0000 0.0000 0.0000
vn -0.5000 0.0000 -0.8660
vn 0.0000 1.0000 0.0000
vn 0.5000 -0.0000 0.8660
vn -0.5000 -0.0000 0.8660
vn 1.0000 0.0000 0.0000
vn 0.5000 0.0000 -0.8660
vn 0.0000 -1.0000 -0.0000
usemtl Ocean
s 1
f 18/1/1 10/2/1 1/3/1 13/4/1
f 1/3/2 4/5/2 14/6/2 13/4/2
f 7/7/3 4/8/3 1/9/3 10/10/3 9/11/3 5/12/3
f 5/13/4 9/14/4 17/15/4 16/16/4
f 9/14/5 10/17/5 18/18/5 17/15/5
f 5/13/6 16/16/6 15/19/6 7/20/6
f 4/5/7 7/20/7 15/19/7 14/6/7
usemtl Sand
f 13/4/2 14/6/2 2/21/2 3/22/2
f 16/16/6 8/23/6 6/24/6 15/19/6
f 16/16/4 17/15/4 12/25/4 8/23/4
f 11/26/1 18/1/1 13/4/1 3/22/1
f 2/27/8 6/28/8 8/29/8 12/30/8 11/31/8 3/32/8
f 17/15/5 18/18/5 11/33/5 12/25/5
f 14/6/7 15/19/7 6/24/7 2/21/7
