# Blender v2.80 (sub 75) OBJ File: 'tree.blend'
# www.blender.org
mtllib tree.mtl
o Cylinder
v 0.000000 0.596732 -0.000000
v 0.016960 0.187521 -0.025383
v 0.029941 0.187521 -0.005956
v 0.025383 0.187521 0.016960
v 0.005956 0.187521 0.029941
v -0.016960 0.187521 0.025383
v -0.029941 0.187521 0.005956
v -0.025383 0.187521 -0.016960
v -0.005956 0.187521 -0.029941
v 0.016960 0.276199 -0.025383
v 0.050881 0.275252 -0.076149
v 0.016960 0.374882 -0.025383
v 0.050881 0.373936 -0.076149
v 0.016960 0.473566 -0.025383
v 0.050881 0.472620 -0.076149
v 0.029941 0.276199 -0.005956
v 0.089824 0.275252 -0.017867
v 0.029941 0.374882 -0.005956
v 0.089824 0.373936 -0.017867
v 0.029941 0.473566 -0.005956
v 0.089824 0.472620 -0.017867
v 0.025383 0.276199 0.016960
v 0.076149 0.275252 0.050881
v 0.025383 0.374882 0.016960
v 0.076149 0.373936 0.050881
v 0.025383 0.473566 0.016960
v 0.076149 0.472620 0.050881
v 0.005956 0.276199 0.029941
v 0.017867 0.275252 0.089824
v 0.005956 0.374882 0.029941
v 0.017867 0.373936 0.089824
v 0.005956 0.473566 0.029941
v 0.017867 0.472620 0.089824
v -0.016960 0.276199 0.025383
v -0.050881 0.275252 0.076149
v -0.016960 0.374882 0.025383
v -0.050881 0.373936 0.076149
v -0.016960 0.473566 0.025383
v -0.050881 0.472620 0.076149
v -0.029941 0.276199 0.005956
v -0.089824 0.275252 0.017867
v -0.029941 0.374882 0.005956
v -0.089824 0.373936 0.017867
v -0.029941 0.473566 0.005956
v -0.089824 0.472620 0.017867
v -0.025383 0.276199 -0.016960
v -0.076149 0.275252 -0.050881
v -0.025383 0.374882 -0.016960
v -0.076149 0.373936 -0.050881
v -0.025383 0.473566 -0.016960
v -0.076149 0.472620 -0.050881
v -0.005956 0.276199 -0.029941
v -0.017867 0.275252 -0.089824
v -0.005956 0.374882 -0.029941
v -0.017867 0.373936 -0.089824
v -0.005956 0.473566 -0.029941
v -0.017867 0.472620 -0.089824
vt 0.778966 0.729922
vt 0.739867 0.729922
vt 0.712220 0.757569
vt 0.712220 0.796668
vt 0.739867 0.824315
vt 0.778966 0.824315
vt 0.806613 0.796668
vt 0.806613 0.757569
vt 0.999759 0.704165
vt 0.851367 0.704165
vt 0.851367 0.743264
vt 0.999759 0.743264
vt 0.999759 0.782363
vt 0.851368 0.782363
vt 0.851368 0.821462
vt 0.999759 0.821461
vt 0.999759 0.665066
vt 0.851367 0.665066
vt 0.851368 0.860560
vt 0.999759 0.860560
vt 0.999759 0.625968
vt 0.851368 0.625967
vt 0.999759 0.586869
vt 0.851368 0.586869
vt 0.851368 0.899659
vt 0.999759 0.899659
vt 0.541743 0.047116
vt 0.591872 0.300312
vt 0.658972 0.051076
vt 0.658972 0.549549
vt 0.541742 0.553509
vt 0.434866 0.505179
vt 0.434866 0.095446
vt 0.360413 0.414541
vt 0.333761 0.300312
vt 0.360413 0.186084
vt 0.161465 0.681273
vt 0.200567 0.586869
vt 0.083263 0.586869
vt 0.122368 0.681272
vt 0.023695 0.408241
vt 0.203595 0.331623
vt 0.195777 0.293313
vt 0.000241 0.293313
vt 0.161432 0.775689
vt 0.200550 0.870087
vt 0.283483 0.787138
vt 0.189077 0.748039
vt 0.024440 0.406288
vt 0.204339 0.329670
vt 0.196521 0.291360
vt 0.000985 0.291360
vt 0.161391 0.775689
vt 0.200509 0.870087
vt 0.283441 0.787138
vt 0.189035 0.748039
vt 0.094721 0.708917
vt 0.000317 0.669815
vt 0.000317 0.787119
vt 0.094720 0.748014
vt 0.023695 0.178386
vt 0.203595 0.255004
vt 0.225799 0.222822
vt 0.090307 0.081839
vt 0.189077 0.708940
vt 0.283483 0.669841
vt 0.200550 0.586892
vt 0.161432 0.681290
vt 0.024440 0.176433
vt 0.204339 0.253051
vt 0.226543 0.220869
vt 0.091051 0.079886
vt 0.189035 0.708940
vt 0.283441 0.669841
vt 0.200509 0.586892
vt 0.161391 0.681290
vt 0.189111 0.708919
vt 0.283513 0.669815
vt 0.090307 0.504788
vt 0.225799 0.363805
vt 0.122334 0.775697
vt 0.083253 0.870110
vt 0.091051 0.502835
vt 0.226543 0.361852
vt 0.122292 0.775697
vt 0.083212 0.870110
vt 0.083263 0.870065
vt 0.122365 0.775660
vt 0.258837 0.201913
vt 0.189423 0.019113
vt 0.083254 0.586869
vt 0.122334 0.681283
vt 0.259582 0.199960
vt 0.190167 0.017160
vt 0.083212 0.586869
vt 0.122292 0.681283
vt 0.189109 0.748017
vt 0.283513 0.787118
vt 0.189422 0.567514
vt 0.258837 0.384714
vt 0.094678 0.748058
vt 0.000288 0.787194
vt 0.190167 0.565561
vt 0.259582 0.382761
vt 0.094637 0.748058
vt 0.000246 0.787194
vt 0.161462 0.775661
vt 0.200567 0.870065
vt 0.305191 0.586386
vt 0.297427 0.391005
vt 0.094663 0.708959
vt 0.000241 0.669898
vt 0.305935 0.584433
vt 0.298171 0.389052
vt 0.094621 0.708959
vt 0.000200 0.669898
vt 0.297427 0.195622
vt 0.305191 0.000241
vt 0.000288 0.669785
vt 0.094678 0.708921
vt 0.298171 0.193669
vt 0.305935 -0.001712
vt 0.000246 0.669785
vt 0.094637 0.708921
vn 0.0000 -1.0000 0.0000
vn -0.9808 0.0000 -0.1951
vn 0.1951 0.0000 -0.9808
vn -0.5556 0.0000 -0.8315
vn -0.8315 0.0000 0.5556
vn 0.8315 0.0000 -0.5556
vn -0.1951 0.0000 0.9808
vn 0.5556 0.0000 0.8315
vn 0.9808 0.0000 0.1951
vn 0.8104 0.5633 0.1612
vn 0.4590 0.5633 0.6870
vn -0.1612 0.5633 0.8104
vn 0.6870 0.5633 -0.4590
vn -0.6870 0.5633 0.4590
vn -0.4590 0.5633 -0.6870
vn 0.1612 0.5633 -0.8104
vn -0.8104 0.5633 -0.1612
vn 0.0165 -0.9999 0.0033
vn -0.8535 0.4927 -0.1698
vn -0.0033 -0.9999 0.0165
vn 0.1698 0.4927 -0.8535
vn 0.0093 -0.9999 0.0139
vn -0.4835 0.4927 -0.7235
vn 0.0139 -0.9999 -0.0093
vn -0.7235 0.4927 0.4835
vn -0.0139 -0.9999 0.0093
vn 0.7235 0.4927 -0.4835
vn 0.0033 -0.9999 -0.0165
vn -0.1698 0.4927 0.8535
vn -0.0093 -0.9999 -0.0139
vn 0.4835 0.4927 0.7235
vn -0.0165 -0.9999 -0.0033
vn 0.8535 0.4927 0.1698
usemtl Wood
s off
f 9/1/1 2/2/1 3/3/1 4/4/1 5/5/1 6/6/1 7/7/1 8/8/1
f 7/9/2 40/10/2 46/11/2 8/12/2
f 9/13/3 52/14/3 10/15/3 2/16/3
f 8/12/4 46/11/4 52/14/4 9/13/4
f 6/17/5 34/18/5 40/10/5 7/9/5
f 2/16/6 10/15/6 16/19/6 3/20/6
f 5/21/7 28/22/7 34/18/7 6/17/7
f 4/23/8 22/24/8 28/22/8 5/21/8
f 3/20/9 16/19/9 22/25/9 4/26/9
usemtl Leaves
f 21/27/10 1/28/10 27/29/10
f 27/30/11 1/28/11 33/31/11
f 33/31/12 1/28/12 39/32/12
f 15/33/13 1/28/13 21/27/13
f 39/32/14 1/28/14 45/34/14
f 51/35/15 1/28/15 57/36/15
f 57/36/16 1/28/16 15/33/16
f 45/34/17 1/28/17 51/35/17
f 40/37/18 41/38/18 47/39/18 46/40/18
f 41/41/19 42/42/19 48/43/19 47/44/19
f 42/45/18 43/46/18 49/47/18 48/48/18
f 43/49/19 44/50/19 50/51/19 49/52/19
f 44/53/18 45/54/18 51/55/18 50/56/18
f 52/57/20 53/58/20 11/59/20 10/60/20
f 53/61/21 54/62/21 12/63/21 11/64/21
f 54/65/20 55/66/20 13/67/20 12/68/20
f 55/69/21 56/70/21 14/71/21 13/72/21
f 56/73/20 57/74/20 15/75/20 14/76/20
f 46/40/22 47/39/22 53/58/22 52/57/22
f 47/44/23 48/43/23 54/62/23 53/61/23
f 48/48/22 49/47/22 55/66/22 54/65/22
f 49/52/23 50/51/23 56/70/23 55/69/23
f 50/56/22 51/55/22 57/74/22 56/73/22
f 34/77/24 35/78/24 41/38/24 40/37/24
f 35/79/25 36/80/25 42/42/25 41/41/25
f 36/81/24 37/82/24 43/46/24 42/45/24
f 37/83/25 38/84/25 44/50/25 43/49/25
f 38/85/24 39/86/24 45/54/24 44/53/24
f 10/60/26 11/59/26 17/87/26 16/88/26
f 11/64/27 12/63/27 18/89/27 17/90/27
f 12/68/26 13/67/26 19/91/26 18/92/26
f 13/72/27 14/71/27 20/93/27 19/94/27
f 14/76/26 15/75/26 21/95/26 20/96/26
f 28/97/28 29/98/28 35/78/28 34/77/28
f 29/99/29 30/100/29 36/80/29 35/79/29
f 30/101/28 31/102/28 37/82/28 36/81/28
f 31/103/29 32/104/29 38/84/29 37/83/29
f 32/105/28 33/106/28 39/86/28 38/85/28
f 22/107/30 23/108/30 29/98/30 28/97/30
f 23/109/31 24/110/31 30/100/31 29/99/31
f 24/111/30 25/112/30 31/102/30 30/101/30
f 25/113/31 26/114/31 32/104/31 31/103/31
f 26/115/30 27/116/30 33/106/30 32/105/30
f 16/88/32 17/87/32 23/108/32 22/107/32
f 17/90/33 18/89/33 24/117/33 23/118/33
f 18/92/32 19/91/32 25/119/32 24/120/32
f 19/94/33 20/93/33 26/121/33 25/122/33
f 20/96/32 21/95/32 27/123/32 26/124/32
